<svg xmlns="http://www.w3.org/2000/svg" width="25.522" height="16" viewBox="0 0 25.522 16">
  <path id="Icon_awesome-behance" data-name="Icon awesome-behance" d="M10.28,12.471a3.363,3.363,0,0,0,2.145-3.279c0-3.128-2.331-3.89-5.02-3.89H0V21H7.612c2.854,0,5.534-1.369,5.534-4.559A3.784,3.784,0,0,0,10.28,12.471ZM3.452,7.982H6.691c1.245,0,2.366.35,2.366,1.795,0,1.334-.873,1.87-2.1,1.87h-3.5V7.982ZM7.143,18.337H3.452V14.013H7.214c1.52,0,2.481.634,2.481,2.242,0,1.586-1.148,2.083-2.552,2.083ZM23.027,7.672H16.66V6.126h6.367V7.672Zm2.495,7.812c0-3.363-1.967-6.168-5.534-6.168a5.714,5.714,0,0,0-5.818,6.017c0,3.54,2.229,5.968,5.818,5.968a5.069,5.069,0,0,0,5.322-3.824H22.553a2.587,2.587,0,0,1-2.468,1.484,2.571,2.571,0,0,1-2.791-2.893h8.2C25.509,15.883,25.522,15.683,25.522,15.484ZM17.3,14.1a2.44,2.44,0,0,1,2.592-2.428,2.328,2.328,0,0,1,2.49,2.428Z" transform="translate(0 -5.302)" fill="#333"/>
</svg>
