<svg xmlns="http://www.w3.org/2000/svg" viewBox="0 0 841.1 277.33"><defs><style>.cls-1{isolation:isolate;}.cls-2{fill:#8357c6;}</style></defs><title>Asset 1</title><g id="Layer_2" data-name="Layer 2"><g id="Layer_1-2" data-name="Layer 1"><g id="Group_2" data-name="Group 2"><g id="Indecision" class="cls-1"><g class="cls-1"><path class="cls-2" d="M0,9.15H13v99.68H0Z"/><path class="cls-2" d="M92.52,64.5c0-16-8.72-24.17-21.88-24.17S48.19,48.62,48.19,65.5v43.33h-13V30.46h13V41.61C53.34,33.46,62.78,29,73.36,29c18.16,0,32,11.15,32,33.61v46.19H92.52Z"/><path class="cls-2" d="M159.16,29.17c12.3,0,23.59,6.3,29,15.3V3h13.16V108.83H188.19V94.1c-4.72,8.72-14.87,16-29.17,16-21,0-37.19-16.44-37.19-40.75S138,29.17,159.16,29.17Zm2.43,11.3c-14.3,0-26.46,10.44-26.46,28.89s12.16,29.31,26.46,29.31S188.19,88,188.19,69.5C188.19,51.34,175.89,40.47,161.59,40.47Z"/><path class="cls-2" d="M257.26,110.11c-22.31,0-38.76-15.73-38.76-40.61s15.87-40.33,38.76-40.33c22.73,0,37.61,16,37.61,37.47a72.14,72.14,0,0,1-.43,7.87H231.8c1,15.87,12.16,24.59,25.46,24.59,11.72,0,19.16-6,22-14.44h14C289.29,99,276.7,110.11,257.26,110.11ZM231.94,63.92h49.48c.15-15.3-11.29-23.74-24.74-23.74C244,40.18,233.37,48.62,231.94,63.92Z"/><path class="cls-2" d="M345.34,29.17c19.45,0,32.18,10,36.18,26.46h-14c-2.72-9.44-10.58-15.45-22.17-15.45-14.3,0-24.88,10.16-24.88,29.32,0,19.45,10.58,29.6,24.88,29.6,11.59,0,19.31-5.57,22.17-15.44h14c-4,15.59-16.73,26.45-36.18,26.45-22.31,0-38.18-15.73-38.18-40.61C307.16,44.9,323,29.17,345.34,29.17Z"/><path class="cls-2" d="M396.68,8.87a8.73,8.73,0,1,1,17.45,0,8.73,8.73,0,1,1-17.45,0Zm2.14,21.59h13v78.37h-13Z"/><path class="cls-2" d="M461.74,110.11c-18.3,0-31.17-10-32-24.31h13.44c.72,7.58,7.44,13.3,18.45,13.3,10.3,0,16-5.15,16-11.58,0-17.45-46.34-7.29-46.34-36.47,0-12,11.3-21.88,28.75-21.88s28.74,9.3,29.6,24.6h-13c-.57-7.87-6.57-13.59-17-13.59-9.58,0-15.3,4.58-15.3,10.87,0,18.59,45.47,8.44,46,36.47C490.34,100.39,479.05,110.11,461.74,110.11Z"/><path class="cls-2" d="M506.5,8.87a8.73,8.73,0,1,1,17.45,0,8.73,8.73,0,1,1-17.45,0Zm2.14,21.59h13v78.37h-13Z"/><path class="cls-2" d="M578,110.11c-22.17,0-39-15.73-39-40.61s17.44-40.33,39.61-40.33,39.61,15.59,39.61,40.33S600.31,110.11,578,110.11Zm0-11.44c13.58,0,26.88-9.29,26.88-29.17s-13-29-26.45-29c-13.73,0-26.17,9.3-26.17,29C552.26,89.38,564.41,98.67,578,98.67Z"/><path class="cls-2" d="M692.68,64.5c0-16-8.72-24.17-21.88-24.17s-22.45,8.29-22.45,25.17v43.33h-13V30.46h13V41.61C653.5,33.46,662.94,29,673.52,29c18.16,0,32,11.15,32,33.61v46.19H692.68Z"/></g></g><g id="app" class="cls-1"><g class="cls-1"><path class="cls-2" d="M651.91,205.26c-4.29,1.57-6.87,2.43-8.72,2.43-.72,0-1.58.29-2.58.29-2.57,0-3.72,0-6-1.58a11.51,11.51,0,0,1-1.71-1.86c-1.72-2.14-.86-6.15-2.58-6.15-2.14.29-3,1-4.86,2,0,0-2,1-5.15,2.71-1.28.72-3,1.29-4.29,2.15a46.34,46.34,0,0,1-5.86,3,26.48,26.48,0,0,1-5.86,1.43,35.57,35.57,0,0,1-3.86.14h-.72c-4-.14-6-1.28-7.15-3.29a10.33,10.33,0,0,1-1.57-4.43,1.88,1.88,0,0,1,.14-.86c.43-1.71.29-3.71,1.72-5.86s2.14-3.57,4.14-5.15,3.29-2.86,5-4.14c1-.72,2.29-1.29,4.29-2.72a41.32,41.32,0,0,1,5.43-3.43c3.29-1.86,4-2,6.72-4s5.72-2.43,8.3-4.43c1.43-1.15,4.15-2.15,6.29-3a42.68,42.68,0,0,0,4.86-1.86,16.19,16.19,0,0,1,6-1.72,1.91,1.91,0,0,1,2,1.72,2.74,2.74,0,0,1-.28,1c-.58,1.43-.86,1.71-2.58,2.71-1.57,1-2.29,1-3.86,2s-3.29,1.28-4.86,2.57-3,1.86-4.58,2.86a44.2,44.2,0,0,0-5.43,3.43c-1.43,1.29-3.15,1.58-5.15,3.58s-3.43,2.14-5,3.14c-1.57,1.15-2.86,2.72-4.71,3.87s-2.15,2-4.15,4.29c-1.29,1.57-1.57,2.28-1.57,3.71.14,2,1.28,2.72,3,2.72s1.29-.29,3.43-.43c2.29-.14,2.86-1,5.15-1.43s3.14-1.28,6.43-2.86a67.37,67.37,0,0,0,6.3-3.43c3.28-1.86,3.71-3.43,4.86-5.29.71-1,1.43-2.86,2.43-4.43a14.63,14.63,0,0,1,2.43-3.29c1.86-1.72,2.72-3.29,4.29-4.87a12.43,12.43,0,0,1,5.72-3.57c.29,0,.43-.14.72-.14a3.26,3.26,0,0,1,3,2.28v.58a6.8,6.8,0,0,1-1,3c-.57.86-2.15,1.29-3.15,2.29s-1.14,2-2.29,3.43-1.14,3.72-2.28,4.58c-.72.42-1.58,3.29-1.58,4.29,0,.85.15,3.14.86,3.86,1.43,1.57,1.72,2.29,3.86,2.43l2,.14c2.58,0,2.43-.14,5.44-.86,0,0,2.86-1,4.14-1.43a45.52,45.52,0,0,0,5.73-2.29l4.71-2.28c.72-.29,4.44-2.43,6.3-3.29s2.14-1.43,3.29-1.43c.85.14,1.43.43,1.43,1.71,0,.58-1.29,1.58-3,2.44l-3.57,2.14c-2.86,1.43-1.86,1.43-5.29,3-1.29.57-2.58,1.58-5.15,2.72s-1.29.86-4,2S655.05,204.11,651.91,205.26Z"/><path class="cls-2" d="M705.53,175.94a2.45,2.45,0,0,0,.72-1.57.46.46,0,0,0-.43-.43c-.72,0-1.58.14-4.15,2s-1.72,1.15-5,3.43-4.29,2.58-5.58,3.44a26.77,26.77,0,0,1-2.86,1.86,17.88,17.88,0,0,1-1.86,1.14,12.3,12.3,0,0,0-2.15,1.43,24.28,24.28,0,0,0-2.86,1.72c-1,.71-1.43.71-3.14,1.85s-1.57.72-3.86,2.29a40.61,40.61,0,0,1-4.15,2.29,8.51,8.51,0,0,1-2.57,1.15,1.17,1.17,0,0,1-1.29-1.15c0-1.29,1.71-2.14,3-3,1-.72,3-1.86,3-1.86,2.15-1.29,3-2,5-3.15,1.72-1,2.72-1.57,4.43-2.71,0,0,2.43-1.43,5.58-3.58,0,0,2.72-1.72,4.43-2.86a47.09,47.09,0,0,0,5.15-3.72c2-1.86,4.15-2.57,6.58-4.43s2.86-2,5.43-4.15c4-3.29,3.58-2.72,6.15-5,1.58-1.43,3.72-3.72,5.44-5.15s3.14-3.29,4.14-4.15a35.21,35.21,0,0,0,4-4c1.86-2.29,2.43-2.58,4.29-4.72,2.72-3.15,2.86-2.58,5-5.44s3.58-3.72,4.72-3.72c1.72.15,2.43,1.44,2.43,3.29,0,2-2.28,4.87-3.43,6.58-1.43,2.15-3.43,3.58-5.15,5.87-1.86,2.57-3.29,4.14-5,6.15l-4.43,5.57c-1.58,2.15-2.58,2.86-4.15,5s-3.15,3.86-6.44,8.15c-2.43,3.14-3.43,4.29-5.29,7-2.29,3-4.43,6.29-7.43,10.15-4.29,5.72-6.87,9.15-11.3,14.44-4.43,5.44-8.44,11.3-12.87,17-2.72,3.43-5.58,7-8.44,11l-5,7.3c-1.15,1.85-2.58,3.43-3.87,5.14-2,2.44-3.86,4.87-5.43,7.15a35.38,35.38,0,0,0-3.58,6.3c-2.57,6.15-1.71,8.58-8.15,11.72l-6.15,3c-3,1.43-5.72,2.71-7.43,2.71a1.79,1.79,0,0,1-1.58-.57c-1-1-1.85-1.29-1.85-2s.71-1.86,2.86-4.29a56.57,56.57,0,0,0,5-6.15l4.29-6.58c1.15-1.86,2.43-3.57,3.58-5.29,2.14-3,4.14-5.58,6.15-8l4.29-5.15c1.14-1.28,2.71-3.29,4.43-5.43,2.29-2.86,4.72-6.29,7-9.15s4.14-5.29,5.29-6.58c5.43-6,11.58-14,16-19.31,2.72-3.29,5.15-6.29,7.15-9,2.29-3.14,4.87-5.43,6.73-7.86Zm108.83,29.18a39,39,0,0,1-4.29,1.71c-1.86.72-3.15,1.15-5.15,2-2.43,1-4.43,2.15-6.72,2.58-1.86.43-3.86,1.28-6.44,1.71a47.67,47.67,0,0,1-7.29.58c-.43,0-.86-.15-1.29-.15-3.43-.57-5.43-3-5.43-5,0-3.86.57-4.72,3.15-7,2.86-2.43,4.86-2.14,9.43-4.72s5.3-3.72,8-7.15a13.27,13.27,0,0,0,3.15-9c0-1.14-.14-1.71-.14-2.43,0-.57-.86-1.29-1.72-1.29a5.92,5.92,0,0,0-3.29,1c-1.72,1.29-2.86,1.72-6.15,3.58a38.73,38.73,0,0,0-7.29,5c-1.29,1.15-3.72,2.86-6.15,5.3-5.29,5.72-3.72,3.43-9.15,9.86s-7.87,9.73-9.58,11.59a55,55,0,0,0-5.44,6.72,56.15,56.15,0,0,1-5.43,6.72,50.55,50.55,0,0,0-6.44,7.29,45.92,45.92,0,0,1-6,7.15c-2,2-3.86,4.86-5.86,6.87-1.29,1.28-2.86,3-4.57,5-2.44,2.72-5,6-7.16,8.58-1.42,1.72-2.71,3.43-3.71,4.44-1.43,1.43-3.15,3.43-5.15,5.29-3,2.86-6.15,5.43-8.15,5.57-.43,0-2.58.15-3,.15-1.57,0-5.57-.58-5.57-2a6.6,6.6,0,0,1,1.14-3.57c1.43-2.43,4-4,5-5.43l5.43-5.15c1.72-1.86,3.86-3.15,5.43-5.29A67.32,67.32,0,0,1,714,250a81.29,81.29,0,0,0,6.58-7.15l9.15-11c2.29-2.72,5-5.72,7.58-8.58,1.57-1.72,3.72-4.44,5.15-5.87a85.61,85.61,0,0,0,6.72-7.86c2.29-2.86,4.29-5.58,6.43-8,1.72-2,3.72-4.72,5.72-7a79.85,79.85,0,0,0,5-6.29c.29-.29,3.43-4.29,3.43-5.15,0-.14-.86-.14-1-.14a5,5,0,0,0-2,1.29,24.26,24.26,0,0,1-3.29,2.71c-2.43,1.86-4.86,3.72-7.72,5.58-3.58,2.29-7,4.58-9.87,6.15-2,1.14-3.72,2.15-4.72,2.57a58.06,58.06,0,0,1-7.72,3.29,29.46,29.46,0,0,1-10,1.86,21,21,0,0,1-5.15-.57c-3.72-.86-4.15-3.43-4.15-5.58a6.22,6.22,0,0,1,.29-2.14c.57-2.72,1.43-3.43,4.15-5.72s4.86-2.72,7.43-5.29c3.43-3.44,4.15-4.58,5-6.3,0-.57,1.71-4.14,1.71-6.29s-1-2.72-4.43-2.72c-2.43,0-4,0-4-1.28a1.82,1.82,0,0,1,1-1.58c2.71-1.85,7.43-4.14,10.29-4.57,1.72-.14,3-.43,3.86-.43a5.35,5.35,0,0,1,3.58,1.86c2.43,2.86,3,3.29,3,5.86a13,13,0,0,1-.57,3.72c-1.86,4.72-1.43,4-5,8.58a40.26,40.26,0,0,1-4.15,4.29c-1.86,1.57-3.72,2.86-5.44,4.29-3.14,2.43-3.71,3.29-3.71,4.29a1.81,1.81,0,0,0,1.43,1.86,8.38,8.38,0,0,0,3.28.57c2,0,5-.71,8.87-2.29,3.43-1.28,7-3.57,11-6.15A100.36,100.36,0,0,0,760,185l4-3.29c3.72-3.14,6.15-5,9.87-8.43,3-2.58,4.15-3.58,7.43-6.87,2.87-2.86,6-5.86,6-5.86,1.57-1.58,3.72-4,4-4a59.17,59.17,0,0,0,4.15-4.57c2.86-3.58,4.72-5,6.87-5a1.11,1.11,0,0,1,.57.29c1.29.43,1.57.71,1.57,1.57v.86a6.67,6.67,0,0,1-1.14,2.29c-2.72,3.57-2.15,3.43-5,6.58-2.86,3.43-4.57,5.72-7,8.72s-4.43,6.15-6.14,8.15a3.37,3.37,0,0,0-.72,1.86c0,.43.43.57,1,.57a8.89,8.89,0,0,0,5.72-2.14,63.91,63.91,0,0,1,7-4.29,57.37,57.37,0,0,1,7.15-3.72,33.05,33.05,0,0,1,7.86-1.57,3.24,3.24,0,0,1,2.86,2c1,2.43,1.29,2.86,1.29,4a9.84,9.84,0,0,1-1.29,4.43c-1.14,2.44-1.85,4.58-2.57,5.72-1,1.58-1.72,3.15-3.29,5.3a34.9,34.9,0,0,1-5.72,5.57c-3.57,2.72-7.15,4.72-9.72,6.72-2.15,1.58-3.44,3-3.44,4.29,0,.43.29.86,1.15,1.15a15.42,15.42,0,0,0,3.72.28,17.42,17.42,0,0,0,5.43-1.14l4.72-1.43c2.57-.86,4-1.29,5.86-2a59.73,59.73,0,0,0,6.15-2.58c2.86-1.28,4-2,7-3.29l4.72-2.28c.71-.15,4.43-2.43,6.29-3.29s2.15-1.43,3.29-1.43c.86.14,1.43.43,1.43,1.71,0,.58-1.29,1.58-3,2.44l-3.58,2.14c-2.86,1.43-1,1-5.15,2.86a28.08,28.08,0,0,1-4.86,2.86c-1.86.86-3.43,1.86-5.43,2.86S815.65,204.4,814.36,205.12Z"/></g></g></g></g></g></svg>