<svg width="132" height="40" viewBox="0 0 132 40" fill="none" xmlns="http://www.w3.org/2000/svg">
<g clip-path="url(#clip0)">
<path d="M114.055 11.5H121.632C127.713 11.5 132 15.2885 132 20.3731V20.4728C132 25.4577 127.813 29.3459 121.632 29.3459H114.055V11.5ZM127.514 20.4728V20.3731C127.514 17.1828 125.121 14.9894 121.632 14.9894H118.74V25.6571H121.632C125 25.6571 127.514 23.5646 127.514 20.4728Z" fill="#091231"/>
<path d="M47.1566 11.4648H51.5433L60.7155 29.2111H55.8303L53.8363 25.2232H44.7638L42.7699 29.2111H37.9844L47.1566 11.4648ZM52.1415 21.8334L49.2502 16.1506L46.359 21.8334H52.1415Z" fill="#091231"/>
<path d="M62.211 11.4648H72.0811C74.773 11.4648 76.8666 12.063 78.3621 13.2594C79.5585 14.2564 80.2563 15.6522 80.2563 17.347V17.4467C80.2563 18.8425 79.8575 20.0389 78.9603 20.9361C78.063 21.8334 76.9663 22.7307 75.5705 23.1295L80.8545 29.3108H75.2715L70.6853 23.8274H70.5857H66.8968V29.3108H62.1113V11.4648H62.211ZM71.782 20.0389C72.9784 20.0389 73.8757 19.8395 74.4739 19.341C75.0721 18.8425 75.3711 18.2443 75.3711 17.5464V17.4467C75.3711 16.6491 75.0721 15.9512 74.3742 15.5525C73.776 15.1537 72.779 14.9543 71.6823 14.9543H66.9965V20.0389H71.782Z" fill="#091231"/>
<path d="M83.3467 11.4648H88.1322V19.2413L96.9056 11.4648H102.588L93.815 18.9422L102.987 29.2111H97.3044L90.6246 21.634L88.1322 23.8274V29.2111H83.3467V11.4648Z" fill="#091231"/>
<path d="M111.961 11.4648H107.475V15.1537H111.961V11.4648Z" fill="#091231"/>
<path d="M111.762 17.2471H107.574V29.2108H111.762V17.2471Z" fill="#091231"/>
<path d="M11.864 12.5615H1.39577C0.498489 14.7549 0 17.2473 0 19.7398C0 27.915 4.8852 34.7942 11.864 37.8848V12.5615Z" fill="#139045"/>
<path d="M11.8649 10.4687V1.69531C7.77724 3.48987 4.48721 6.58051 2.39355 10.4687H11.8649Z" fill="#ED1C24"/>
<path fill-rule="evenodd" clip-rule="evenodd" d="M37.1876 10.3686C33.8976 4.18731 27.3175 0 19.7405 0C17.7465 0 15.7526 0.299094 13.958 0.897281V10.4683H18.6438L24.6257 18.3444L28.9127 12.6616L30.6076 10.3686H37.1876ZM13.958 29.2115V38.6828C15.7526 39.281 17.7465 39.5801 19.7405 39.5801C27.2178 39.5801 33.7979 35.3927 37.0879 29.2115H31.2057V17.3474L24.8251 25.2236H24.526L18.1453 17.3474V29.2115H13.958Z" fill="url(#paint0_linear)"/>
</g>
<defs>
<linearGradient id="paint0_linear" x1="13.5891" y1="19.7475" x2="36.8428" y2="19.7475" gradientUnits="userSpaceOnUse">
<stop stop-color="#41A7CD"/>
<stop offset="0.0618488" stop-color="#3B88AA"/>
<stop offset="0.1588" stop-color="#316584"/>
<stop offset="0.2624" stop-color="#264A67"/>
<stop offset="0.3722" stop-color="#1D3652"/>
<stop offset="0.4902" stop-color="#152743"/>
<stop offset="0.6207" stop-color="#0E1C39"/>
<stop offset="0.773" stop-color="#0A1533"/>
<stop offset="1" stop-color="#091231"/>
</linearGradient>
<clipPath id="clip0">
<rect width="132" height="40" fill="white"/>
</clipPath>
</defs>
</svg>
