<?xml version="1.0" encoding="UTF-8"?> <svg xmlns="http://www.w3.org/2000/svg" width="138" height="23" viewBox="0 0 138 23" fill="none"><path d="M21.3603 3.07812H19.5723V22.6369H21.3603V3.07812Z" fill="#662B82"></path><path d="M44.603 22.6371H42.4774L29.7633 6.93469V22.6371H27.4028V3.07837H29.5289L42.2425 18.7817V3.07837H44.603V22.6371Z" fill="#662B82"></path><path d="M59.9722 22.6371H55.8367L48.0063 3.07837H51.54L57.9342 19.4376L64.3716 3.07837H67.8026L59.9722 22.6371Z" fill="#662B82"></path><path d="M85.914 22.6371H70.5752V3.07837H85.7966V6.65453H74.6661V10.9861H84.3937V14.5623H74.6661V19.0606H85.914V22.6371Z" fill="#662B82"></path><path d="M104.069 8.62477C102.293 7.57218 100.263 7.00297 98.1882 6.9757C96.3265 6.9757 94.9626 7.57726 94.9626 8.73615C94.9626 9.96604 96.9122 10.2594 99.186 10.6365L100.036 10.7759C104.024 11.4327 106.532 13.2063 106.532 16.4058C106.532 21.0576 102.324 23 97.9243 23C94.5081 23 91.1646 22.1476 88.8921 20.513L91.3409 16.7136C93.2883 18.0386 95.5988 18.7543 97.9685 18.7666C99.8168 18.7666 101.225 18.1663 101.225 16.9509C101.225 15.7775 99.8459 15.4417 97.1622 15.0514L96.1358 14.8971C91.9128 14.2683 89.6247 12.4526 89.6984 8.93171C89.7721 5.13193 93.1736 2.72869 97.9685 2.72869C100.87 2.67455 103.732 3.38921 106.254 4.79736L104.069 8.62477Z" fill="#662B82"></path><path d="M119.349 7.96853V22.6367H113.776V7.96768H107.939V3.07788H125.078L119.349 7.96853Z" fill="#662B82"></path><path d="M130.306 8.90063H127.051V14.395H130.306V8.90063Z" fill="#662B82"></path><path d="M128.684 0L138 0.0110533V7.96729L128.684 0Z" fill="#65AE8A"></path><path d="M7.83037 3.09082C12.3614 3.09082 14.9134 5.06128 14.9134 8.52563C14.9134 11.8926 12.2146 13.9745 7.8451 13.9745H7.0388L14.8107 22.65H12.5811L4.92707 13.9745H1.78851V22.65H0V3.09082H7.83037ZM1.78851 4.6978V12.4232H7.81521C11.2176 12.4232 13.0655 11.0407 13.0655 8.52563C13.0655 6.02547 11.1886 4.6978 7.81521 4.6978H1.78851Z" fill="#662B82"></path></svg> 