<svg id="Logo" xmlns="http://www.w3.org/2000/svg" width="218" height="25.333" viewBox="0 0 218 25.333">
  <path id="Union_19" data-name="Union 19" d="M153.194,24.7l.48-3.091a4.89,4.89,0,0,0,1.816.375c1.606,0,2.746-1.126,3.2-2.942L152.729,4.622h4.262l3.767,10.49,3.722-10.49h4.277L161.959,21c-1.155,2.761-2.926,4.337-6.018,4.337A6.228,6.228,0,0,1,153.194,24.7Zm-64.813.33V4.622h3.707l.075,1.741a5.655,5.655,0,0,1,4.743-2.041c4.082,0,6.978,3.182,6.978,7.564,0,4.352-2.9,7.444-6.978,7.444a6.056,6.056,0,0,1-4.682-1.816v7.519Zm3.827-13.161a3.911,3.911,0,1,0,7.819,0,3.914,3.914,0,1,0-7.819,0ZM76.221,14.3V7.819H73.79v-3.2h2.446V0h3.737V4.622h4.172v3.2H80.063v5.928a1.925,1.925,0,0,0,2.131,2.161,9.7,9.7,0,0,0,2.446-.345l.36,3.2a10.78,10.78,0,0,1-3.482.57C78.352,19.33,76.221,17.694,76.221,14.3Zm42.159-2.476a7.7,7.7,0,0,1,15.4,0,7.7,7.7,0,0,1-15.4,0Zm3.827,0a3.875,3.875,0,1,0,7.744,0,3.874,3.874,0,1,0-7.744,0ZM41.962,11.8c0-4.367,2.986-7.474,6.948-7.474a5.706,5.706,0,0,1,4.7,2.041l.075-1.741H57.45V19.029H53.683l-.075-1.741a5.663,5.663,0,0,1-4.7,2.041C44.949,19.329,41.962,16.163,41.962,11.8Zm3.827,0a3.867,3.867,0,0,0,3.872,4.112A3.923,3.923,0,0,0,53.593,11.8a3.869,3.869,0,0,0-3.932-4.037A3.812,3.812,0,0,0,45.789,11.8ZM.225,18.294.63,15.142a13.8,13.8,0,0,0,4.847,1.006c1.876,0,2.672-.39,2.672-1.246,0-.765-.615-1.141-2.3-1.441l-1.726-.33C1.351,12.651,0,11.24,0,8.854,0,6.168,2.491,4.322,6.318,4.322a12.626,12.626,0,0,1,4.877.9l-.33,3.137a13.06,13.06,0,0,0-4.352-.81c-1.891,0-2.807.45-2.807,1.305,0,.705.63,1.066,2.356,1.381l1.531.285c2.852.525,4.277,1.816,4.277,4.307,0,2.9-2.4,4.5-6.093,4.5A13.472,13.472,0,0,1,.225,18.294Zm146.323.735-3.317-4.788-3.287,4.788h-4.322l5.3-7.354-5.253-7.053h4.427l3.137,4.442,3.122-4.442h4.412l-5.223,7.053,5.343,7.354Zm-39.436,0V4.622h3.722l.075,1.966a4,4,0,0,1,3.752-2.266,5.838,5.838,0,0,1,1.876.33l-.3,3.437a5.4,5.4,0,0,0-1.786-.33c-1.7,0-3.482.915-3.482,3.887v7.384Zm-45.512,0V4.622h3.722L65.4,6.588a4,4,0,0,1,3.752-2.266,5.84,5.84,0,0,1,1.876.33l-.3,3.437a5.4,5.4,0,0,0-1.786-.33c-1.7,0-3.482.915-3.482,3.887v7.384Zm-26.875,0V10.97a2.782,2.782,0,0,0-2.881-3.076,2.952,2.952,0,0,0-3.167,2.986v8.149H24.82V10.97a2.786,2.786,0,0,0-2.867-3.076A2.978,2.978,0,0,0,18.8,10.97v8.059H14.944V4.622h3.662l.075,1.666a5.449,5.449,0,0,1,4.412-1.966,5.167,5.167,0,0,1,4.833,2.551,5.94,5.94,0,0,1,5-2.551A5.332,5.332,0,0,1,38.581,9.98v9.05Z" transform="translate(49.243 0)" fill="#385d7e"/>
  <path id="Union_48" data-name="Union 48" d="M0,20.3V1.662A1.663,1.663,0,0,1,2.588.284l7.29,4.877a1.659,1.659,0,0,1,.737,1.379v8.881A1.659,1.659,0,0,1,9.878,16.8L2.588,21.677a1.645,1.645,0,0,1-.921.284A1.663,1.663,0,0,1,0,20.3Zm17.876-1.807V3.214A1.654,1.654,0,0,1,20.669,2.15l3.686,3.421a1.452,1.452,0,0,1,.476,1.064v8.436a1.451,1.451,0,0,1-.476,1.064l-3.686,3.421A1.669,1.669,0,0,1,19.522,20,1.577,1.577,0,0,1,17.876,18.492Zm14.188-1.164V4.25c0-1.72,2.488-2.345,3.532-.868L36.9,4.953a1.5,1.5,0,0,1,.283.868v9.936a1.5,1.5,0,0,1-.283.868L35.6,18.2a1.968,1.968,0,0,1-1.634.829A1.781,1.781,0,0,1,32.064,17.328Z" transform="translate(0 0.808)" fill="#f44862"/>
</svg>
