<?xml version="1.0" standalone="no"?>
<svg
  width="600"
  height="600"
  viewBox="0 0 600 600"
  xmlns="http://www.w3.org/2000/svg"
>
  <g transform="translate(300,300)">
    <path d="M127.5,-198.7C168.1,-172.3,206,-141.8,230.3,-101.4C254.6,-61,265.4,-10.6,260.4,38.8C255.4,88.2,234.6,136.8,202.2,176.5C169.8,216.3,125.8,247.3,76.1,264C26.5,280.8,-28.7,283.4,-77.1,267.1C-125.5,250.9,-167,215.8,-200.1,174.9C-233.1,134,-257.6,87.3,-260.3,40.1C-263,-7.2,-243.8,-54.9,-221.9,-100.6C-199.9,-146.4,-175.1,-190.1,-137.6,-218C-100.2,-245.9,-50.1,-258,-3.3,-252.8C43.4,-247.6,86.9,-225.2,127.5,-198.7Z" fill="#FFB4BC" />
  </g>
</svg>
  