<?xml version="1.0" standalone="no"?>
<svg
  width="600"
  height="600"
  viewBox="0 0 600 600"
  xmlns="http://www.w3.org/2000/svg"
>
  <g transform="translate(300,300)">
    <path d="M131.2,-214.3C166.5,-181.4,189.2,-139.1,214.4,-94.8C239.6,-50.4,267.3,-4,264.7,40.5C262.1,85,229.3,127.6,192.3,162C155.3,196.3,114.1,222.4,67.5,241.2C20.9,260,-31.1,271.5,-76.2,258.7C-121.4,245.9,-159.7,208.7,-185.3,167.2C-210.9,125.7,-223.7,79.9,-223.5,36.3C-223.2,-7.2,-209.8,-48.5,-196.5,-94.8C-183.2,-141.1,-170,-192.6,-137.3,-226.6C-104.5,-260.6,-52.3,-277.3,-2.2,-274C47.9,-270.6,95.9,-247.2,131.2,-214.3Z" fill="#FFB4BC" />
  </g>
</svg>
  