<?xml version="1.0" standalone="no"?>
<svg
  width="600"
  height="600"
  viewBox="0 0 600 600"
  xmlns="http://www.w3.org/2000/svg"
>
  <g transform="translate(300,300)">
    <path d="M124.9,-191C167.9,-166.6,213.1,-142.3,235.1,-104.4C257,-66.5,255.7,-14.9,246.3,33.9C236.9,82.7,219.3,128.8,189.6,166C160,203.2,118.2,231.6,74.4,237C30.6,242.4,-15.1,224.8,-64,212.8C-112.9,200.8,-164.9,194.4,-201.9,166.6C-239,138.9,-261,89.8,-259.3,42.7C-257.6,-4.3,-232,-49.3,-201.1,-81.5C-170.3,-113.6,-134.1,-132.9,-99.7,-161.2C-65.2,-189.5,-32.6,-226.8,4.1,-233.2C40.9,-239.7,81.8,-215.3,124.9,-191Z" fill="#FFB4BC" />
  </g>
</svg>
  