<svg xmlns="http://www.w3.org/2000/svg" viewBox="0 0 381.03 394.12"><defs><style>.cls-1{stroke:#000;stroke-miterlimit:10;stroke-width:6px;}</style></defs><title>Asset 12</title><g id="Layer_2" data-name="Layer 2"><g id="Layer_1-2" data-name="Layer 1"><path class="cls-1" d="M325.35,391.12q-45,0-73.76-32.11-21.28-23.79-28-59.86Q189.88,327.7,141,327.69q-38.65,0-70.4-18.83a132.72,132.72,0,0,1-49.64-51.73Q3,224.22,3,183t17.91-74.33q17.9-33.1,49.47-51.34T141,39.08q48.93,0,86.17,27L230.45,113l-2.6,2.61c-7.09-30.66-20-45.19-45.06-56.29Q164.36,51,141,51,93.07,51,61.34,88.24T29.6,182.79q0,57.3,31.91,95T141,315.8a108.9,108.9,0,0,0,44-9.12,104.71,104.71,0,0,0,35.82-25.37V211.14q0-8.71-4.62-13.28T203,193.3h-5.67v-4h69.51v4h-5.32q-8.88,0-13.48,4.56t-4.25,13.28v61.05q2.11,62.64,36.52,89.6,24.12,19,62.41,19a187.28,187.28,0,0,0,34.76-3.57l.35,4Q349.45,391.11,325.35,391.12Z"/><path d="M316.94,88.54c-14.89.09-27.4.82-37.9,2.53-15.39,2.51-26.44,7.12-34.28,15s-12.45,18.89-15,34.28c-1.71,10.5-2.44,23-2.53,37.9.09-14.82-.47-27.29-2-37.74-2.31-15.42-6.79-26.46-14.55-34.22S191.89,94,176.47,91.7c-10.45-1.56-22.92-2.12-37.74-2,14.89-.09,27.4-.82,37.91-2.53,15.38-2.51,26.43-7.12,34.27-15s12.45-18.89,15-34.28c1.71-10.5,2.44-23,2.53-37.9-.09,14.82.47,27.29,2,37.74C232.74,53.16,237.22,64.2,245,72s18.8,12.24,34.22,14.55C289.65,88.07,302.12,88.63,316.94,88.54Z"/></g></g></svg>