<?xml version="1.0" encoding="utf-8"?>
<!-- Generator: Adobe Illustrator 17.1.0, SVG Export Plug-In . SVG Version: 6.00 Build 0)  -->
<!DOCTYPE svg PUBLIC "-//W3C//DTD SVG 1.1//EN" "http://www.w3.org/Graphics/SVG/1.1/DTD/svg11.dtd">
<svg version="1.1" id="Layer_1" xmlns="http://www.w3.org/2000/svg" xmlns:xlink="http://www.w3.org/1999/xlink" x="0px" y="0px"
	 viewBox="0 0 440 395" enable-background="new 0 0 440 395" xml:space="preserve">
<path d="M423.8,68.5c-10.8,8.8-41,12.9-46.8,13.6c-0.2-0.4-0.3-0.8-0.4-1.1C403.2,67,413,35.3,413,35.3
	c-25.5,15.1-45.1,18.7-53.9,19.5c-15.3-15.6-36.5-25.3-60-25.3c-46.4,0-84,37.6-84,84c0,6.5,0.8,12.7,2.1,18.8
	C96.7,122.5,43.7,43.7,43.7,43.7c-34,72,26.7,114,26.7,114c-18.7,1.3-38.7-11.3-38.7-11.3c0.7,68,66,83.3,66,83.3
	c-19.3,6-36,0.7-36,0.7C81,287.7,139,289,139,289c-54.7,46-123.8,36-123.8,36c147.5,78,253.2,3.3,253.2,3.3
	C374,266.2,383,155.4,382.9,118.5c0.1-1.7,0.2-3.3,0.2-5c0-1.1,0-2.2-0.1-3.3C406.7,94.4,423.8,68.5,423.8,68.5z"/>
</svg>
